<?xml version="1.0" encoding="utf-8"?>
<!-- Generator: Adobe Illustrator 24.0.0, SVG Export Plug-In . SVG Version: 6.00 Build 0)  -->
<svg version="1.1" xmlns="http://www.w3.org/2000/svg" xmlns:xlink="http://www.w3.org/1999/xlink" x="0px" y="0px"
	 viewBox="0 0 125.7 37.9" style="enable-background:new 0 0 125.7 37.9;" xml:space="preserve">
<style type="text/css">
	.st0{fill:#00C9DB;}
	.st1{fill:url(#SVGID_1_);}
	.st2{fill:url(#SVGID_2_);}
	.st3{fill:url(#SVGID_3_);}
	.st4{fill:url(#SVGID_4_);}
	.st5{fill:url(#SVGID_5_);}
	.st6{fill:url(#SVGID_6_);}
	.st7{fill:url(#SVGID_7_);}
	.st8{fill:url(#SVGID_8_);}
	.st9{fill:url(#SVGID_9_);}
	.st10{fill:url(#SVGID_10_);}
	.st11{fill:url(#SVGID_11_);}
	.st12{fill:url(#SVGID_12_);}
	.st13{fill:url(#SVGID_13_);}
	.st14{fill:url(#SVGID_14_);}
	.st15{fill:url(#SVGID_15_);}
	.st16{fill:url(#SVGID_16_);}
	.st17{fill:url(#SVGID_17_);}
	.st18{fill:url(#SVGID_18_);}
	.st19{fill:url(#SVGID_19_);}
	.st20{fill:url(#SVGID_20_);}
	.st21{fill:url(#SVGID_21_);}
	.st22{fill:url(#SVGID_22_);}
	.st23{fill:url(#SVGID_23_);}
	.st24{fill:url(#SVGID_24_);}
	.st25{fill:url(#SVGID_25_);}
	.st26{fill:url(#SVGID_26_);}
	.st27{fill:url(#SVGID_27_);}
	.st28{fill:url(#SVGID_28_);}
	.st29{fill:url(#SVGID_29_);}
	.st30{fill:#F1F1F8;}
	.st31{display:none;}
</style>
<g id="Layer_2_1_">
	<title>logo</title>
	<path class="st0" d="M30.4,12.8c-0.1-0.2-0.2-0.4-0.4-0.6C25.3,4.9,18.7-0.7,15.4,0.1c-1.2,0.4-2.2,1.2-2.9,2.2
		c2.1,0.1,4.1,0.9,5.7,2.3c1.3,0.7,2.5,1.6,3.5,2.6c1.6,1.3,6.8,7.2,9.7,14.4c1.1,2.9,1.4,5.2,0.8,6.1l0,0c-0.7,1-3.2,1.7-6.7,1.8
		c-0.3,1.1-0.7,2.2-1.2,3.3c5.5,0.2,10-0.8,11.3-2.8C37.4,27.1,35,19.6,30.4,12.8z"/>
	
		<linearGradient id="SVGID_1_" gradientUnits="userSpaceOnUse" x1="3072.0276" y1="4063.8315" x2="3065.4497" y2="4062.7344" gradientTransform="matrix(5.190019e-02 -0.9987 -0.9987 -5.190019e-02 3931.0903 3295.3877)">
		<stop  offset="0" style="stop-color:#F0584B"/>
		<stop  offset="1" style="stop-color:#C73F3D"/>
	</linearGradient>
	<path class="st1" d="M34.4,20.1c-0.3-0.6-0.6-1.3-0.9-2c-0.5,1.5-1,3-1.7,4.5c0.8,2.3,0.9,4.1,0.4,4.9l0,0
		c-0.1,0.2-0.3,0.4-0.5,0.5C32.9,27.5,35.4,26.3,34.4,20.1z"/>
	<path class="st0" d="M30.8,8.9L30.8,8.9c0.9,1,0.8,3.8-0.1,7.3c-3.6,9.4-5.4,10.5-9.5,14.6c-2.8,2.3-5.3,3.4-6.5,3.1l0,0
		c-0.8-0.3-1.7-1.4-2.4-3.3c-1.3-0.4-2.7-0.8-4-1.3c1.3,4.5,3.1,7.9,5.2,8.5c3,1,9.4-3.1,14.7-9.2c6.7-7.9,8.3-19.7,5.8-22.5
		c-1.6-1.8-6.3-2-11.7-0.9C23.4,6.1,24.7,7,25.9,8C28.3,7.8,30.1,8.2,30.8,8.9z"/>
	
		<linearGradient id="SVGID_2_" gradientUnits="userSpaceOnUse" x1="3055.7937" y1="4061.9482" x2="3076.4478" y2="4061.9482" gradientTransform="matrix(5.190019e-02 -0.9987 -0.9987 -5.190019e-02 3931.0903 3295.3877)">
		<stop  offset="0" style="stop-color:#FCBA39"/>
		<stop  offset="1" style="stop-color:#D96D2D"/>
	</linearGradient>
	<path class="st2" d="M33.9,19.1L33.9,19.1C33.9,19.1,33.9,19.1,33.9,19.1L33.9,19.1z"/>
	
		<linearGradient id="SVGID_3_" gradientUnits="userSpaceOnUse" x1="3055.7607" y1="4061.4895" x2="3076.4478" y2="4061.4895" gradientTransform="matrix(5.190019e-02 -0.9987 -0.9987 -5.190019e-02 3931.0903 3295.3877)">
		<stop  offset="0" style="stop-color:#FCBA39"/>
		<stop  offset="1" style="stop-color:#D96D2D"/>
	</linearGradient>
	<path class="st3" d="M34.3,20.1L34.3,20.1L34.3,20.1L34.3,20.1z"/>
	
		<radialGradient id="SVGID_4_" cx="3079.3013" cy="4085.6433" r="14.151" gradientTransform="matrix(5.300000e-02 -1.035 -1.027 -5.400000e-02 4049.4199 3427.8582)" gradientUnits="userSpaceOnUse">
		<stop  offset="0" style="stop-color:#F9B314"/>
		<stop  offset="1" style="stop-color:#EC5222"/>
	</radialGradient>
	<path class="st4" d="M34.3,20c-0.1-0.2-0.2-0.5-0.3-0.7c0.1,0.1,0.1,0.3,0.2,0.4C34.2,19.8,34.3,19.9,34.3,20z"/>
	
		<radialGradient id="SVGID_5_" cx="3671.3521" cy="3963.353" r="14.157" gradientTransform="matrix(1 0 0 -1 0 39.929)" gradientUnits="userSpaceOnUse">
		<stop  offset="0" style="stop-color:#F9B314"/>
		<stop  offset="1" style="stop-color:#EC5222"/>
	</radialGradient>
	<path class="st5" d="M34.4,20.2c1.5,3.5,2.1,6.7,1.6,8.7c0,0,0,0,0,0C36.5,26.8,35.9,23.7,34.4,20.2L34.4,20.2L34.4,20.2z"/>
	
		<radialGradient id="SVGID_6_" cx="33.7025" cy="21.294" r="0.3522" gradientTransform="matrix(1 0 0 -1 0 39.929)" gradientUnits="userSpaceOnUse">
		<stop  offset="0" style="stop-color:#F9B314"/>
		<stop  offset="1" style="stop-color:#EC5222"/>
	</radialGradient>
	<path class="st6" d="M33.5,18.2c0.1,0.3,0.3,0.6,0.4,0.9C33.8,18.8,33.6,18.5,33.5,18.2z"/>
	
		<linearGradient id="SVGID_7_" gradientUnits="userSpaceOnUse" x1="3055.6226" y1="4061.5647" x2="3076.5276" y2="4061.5647" gradientTransform="matrix(5.190019e-02 -0.9987 -0.9987 -5.190019e-02 3931.0903 3295.3877)">
		<stop  offset="0" style="stop-color:#FCBA39"/>
		<stop  offset="1" style="stop-color:#D96D2D"/>
	</linearGradient>
	<path class="st7" d="M34.3,20.1L34.3,20.1c-0.1-0.1-0.1-0.2-0.1-0.3C34.2,19.8,34.3,19.9,34.3,20.1z"/>
	
		<radialGradient id="SVGID_8_" cx="34.2725" cy="20.038" r="0.1255" gradientTransform="matrix(1 0 0 -1 0 39.929)" gradientUnits="userSpaceOnUse">
		<stop  offset="0" style="stop-color:#F9B314"/>
		<stop  offset="1" style="stop-color:#EC5222"/>
	</radialGradient>
	<path class="st8" d="M34.3,20.1L34.3,20.1c-0.1-0.1-0.1-0.2-0.1-0.3C34.2,19.8,34.3,19.9,34.3,20.1z"/>
	
		<linearGradient id="SVGID_9_" gradientUnits="userSpaceOnUse" x1="3055.6125" y1="4063.2983" x2="3076.5327" y2="4063.2983" gradientTransform="matrix(5.190019e-02 -0.9987 -0.9987 -5.190019e-02 3931.0903 3295.3877)">
		<stop  offset="0" style="stop-color:#FCBA39"/>
		<stop  offset="1" style="stop-color:#D96D2D"/>
	</linearGradient>
	<path class="st9" d="M32.1,27.8c0-0.1,0.1-0.1,0.1-0.2C32.2,27.7,32.1,27.7,32.1,27.8z"/>
	
		<radialGradient id="SVGID_10_" cx="32.13" cy="12.215" r="7.355222e-02" gradientTransform="matrix(1 0 0 -1 0 39.929)" gradientUnits="userSpaceOnUse">
		<stop  offset="0" style="stop-color:#F9B314"/>
		<stop  offset="1" style="stop-color:#EC5222"/>
	</radialGradient>
	<path class="st10" d="M32.1,27.8c0-0.1,0.1-0.1,0.1-0.2C32.2,27.7,32.1,27.7,32.1,27.8z"/>
	
		<linearGradient id="SVGID_11_" gradientUnits="userSpaceOnUse" x1="3055.6157" y1="4069.2449" x2="3076.5317" y2="4069.2449" gradientTransform="matrix(5.190019e-02 -0.9987 -0.9987 -5.190019e-02 3931.0903 3295.3877)">
		<stop  offset="0" style="stop-color:#FCBA39"/>
		<stop  offset="1" style="stop-color:#D96D2D"/>
	</linearGradient>
	<path class="st11" d="M34.4,20.2c1,6.1-1.4,7.3-2.7,8l0,0c-1.1,0.8-3.5,1.2-6.5,1.3c-3-0.2-6.1-0.8-9-1.6c0,0.5,0.1,0.9,0.2,1.4
		c0,0.2,0.1,0.3,0.1,0.5c8.2,2.2,17.2,1.2,19.5-0.8C36.5,26.9,35.9,23.7,34.4,20.2z"/>
	
		<linearGradient id="SVGID_12_" gradientUnits="userSpaceOnUse" x1="3055.6545" y1="4063.4597" x2="3076.4058" y2="4063.4597" gradientTransform="matrix(5.190019e-02 -0.9987 -0.9987 -5.190019e-02 3931.0903 3295.3877)">
		<stop  offset="0" style="stop-color:#FCBA39"/>
		<stop  offset="1" style="stop-color:#D96D2D"/>
	</linearGradient>
	<path class="st12" d="M31.9,27.9C31.9,27.9,32,27.9,31.9,27.9C32,27.9,31.9,27.9,31.9,27.9z"/>
	
		<radialGradient id="SVGID_13_" cx="31.9585" cy="12.0245" r="4.302589e-02" gradientTransform="matrix(1 0 0 -1 0 39.929)" gradientUnits="userSpaceOnUse">
		<stop  offset="0" style="stop-color:#F9B314"/>
		<stop  offset="1" style="stop-color:#EC5222"/>
	</radialGradient>
	<path class="st13" d="M31.9,27.9C31.9,27.9,32,27.9,31.9,27.9C32,27.9,31.9,27.9,31.9,27.9z"/>
	
		<linearGradient id="SVGID_14_" gradientUnits="userSpaceOnUse" x1="3055.6206" y1="4062.1931" x2="3076.5295" y2="4062.1931" gradientTransform="matrix(5.190019e-02 -0.9987 -0.9987 -5.190019e-02 3931.0903 3295.3877)">
		<stop  offset="0" style="stop-color:#FCBA39"/>
		<stop  offset="1" style="stop-color:#D96D2D"/>
	</linearGradient>
	<path class="st14" d="M33.9,19.1c-0.1-0.3-0.3-0.6-0.4-0.9C33.6,18.5,33.8,18.8,33.9,19.1C33.9,19.1,33.9,19.1,33.9,19.1z"/>
	
		<radialGradient id="SVGID_15_" cx="33.708" cy="21.2825" r="0.3628" gradientTransform="matrix(1 0 0 -1 0 39.929)" gradientUnits="userSpaceOnUse">
		<stop  offset="0" style="stop-color:#F9B314"/>
		<stop  offset="1" style="stop-color:#EC5222"/>
	</radialGradient>
	<path class="st15" d="M33.9,19.1c-0.1-0.3-0.3-0.6-0.4-0.9C33.6,18.5,33.8,18.8,33.9,19.1C33.9,19.1,33.9,19.1,33.9,19.1z"/>
	
		<linearGradient id="SVGID_16_" gradientUnits="userSpaceOnUse" x1="3072.3032" y1="4062.0725" x2="3065.7612" y2="4060.9827" gradientTransform="matrix(5.190019e-02 -0.9987 -0.9987 -5.190019e-02 3931.0903 3295.3877)">
		<stop  offset="0" style="stop-color:#F0584B"/>
		<stop  offset="1" style="stop-color:#C73F3D"/>
	</linearGradient>
	<path class="st16" d="M34.4,20.1L34.4,20.1C34.4,20.1,34.4,20.1,34.4,20.1L34.4,20.1L34.4,20.1z"/>
	
		<linearGradient id="SVGID_17_" gradientUnits="userSpaceOnUse" x1="3072.2725" y1="4062.356" x2="3065.6995" y2="4061.261" gradientTransform="matrix(5.190019e-02 -0.9987 -0.9987 -5.190019e-02 3931.0903 3295.3877)">
		<stop  offset="0" style="stop-color:#F0584B"/>
		<stop  offset="1" style="stop-color:#C73F3D"/>
	</linearGradient>
	<path class="st17" d="M34,19.3l-0.1-0.2C34,19.2,34,19.2,34,19.3L34,19.3z"/>
	
		<linearGradient id="SVGID_18_" gradientUnits="userSpaceOnUse" x1="3071.7444" y1="4065.4802" x2="3065.1714" y2="4064.3843" gradientTransform="matrix(5.190019e-02 -0.9987 -0.9987 -5.190019e-02 3931.0903 3295.3877)">
		<stop  offset="0" style="stop-color:#F0584B"/>
		<stop  offset="1" style="stop-color:#C73F3D"/>
	</linearGradient>
	<path class="st18" d="M31.7,28.1c0.1-0.1,0.2-0.1,0.2-0.2C31.8,28,31.8,28.1,31.7,28.1z"/>
	
		<linearGradient id="SVGID_19_" gradientUnits="userSpaceOnUse" x1="3071.928" y1="4065.2471" x2="3065.269" y2="4064.137" gradientTransform="matrix(5.190019e-02 -0.9987 -0.9987 -5.190019e-02 3931.0903 3295.3877)">
		<stop  offset="0" style="stop-color:#F0584B"/>
		<stop  offset="1" style="stop-color:#C73F3D"/>
	</linearGradient>
	<path class="st19" d="M32,27.9C32,27.8,32,27.8,32,27.9C32,27.8,32,27.8,32,27.9z"/>
	
		<linearGradient id="SVGID_20_" gradientUnits="userSpaceOnUse" x1="3055.6047" y1="4061.9192" x2="3076.5376" y2="4061.9192" gradientTransform="matrix(5.190019e-02 -0.9987 -0.9987 -5.190019e-02 3931.0903 3295.3877)">
		<stop  offset="0" style="stop-color:#FCBA39"/>
		<stop  offset="1" style="stop-color:#D96D2D"/>
	</linearGradient>
	<path class="st20" d="M34,19.2C34,19.2,34,19.2,34,19.2l-0.1-0.1C33.9,19.2,34,19.2,34,19.2z"/>
	
		<linearGradient id="SVGID_21_" gradientUnits="userSpaceOnUse" x1="3072.2661" y1="4062.3735" x2="3065.7002" y2="4061.2795" gradientTransform="matrix(5.190019e-02 -0.9987 -0.9987 -5.190019e-02 3931.0903 3295.3877)">
		<stop  offset="0" style="stop-color:#F0584B"/>
		<stop  offset="1" style="stop-color:#C73F3D"/>
	</linearGradient>
	<path class="st21" d="M34,19.2C34,19.2,34,19.2,34,19.2l-0.1-0.1C33.9,19.2,34,19.2,34,19.2z"/>
	
		<linearGradient id="SVGID_22_" gradientUnits="userSpaceOnUse" x1="3054.9456" y1="4061.4797" x2="3076.9197" y2="4061.4797" gradientTransform="matrix(5.190019e-02 -0.9987 -0.9987 -5.190019e-02 3931.0903 3295.3877)">
		<stop  offset="0" style="stop-color:#FCBA39"/>
		<stop  offset="1" style="stop-color:#D96D2D"/>
	</linearGradient>
	<path class="st22" d="M34.3,20.1L34.3,20.1L34.3,20.1L34.3,20.1z"/>
	
		<linearGradient id="SVGID_23_" gradientUnits="userSpaceOnUse" x1="3072.4956" y1="4062.1167" x2="3065.5806" y2="4060.9646" gradientTransform="matrix(5.190019e-02 -0.9987 -0.9987 -5.190019e-02 3931.0903 3295.3877)">
		<stop  offset="0" style="stop-color:#F0584B"/>
		<stop  offset="1" style="stop-color:#C73F3D"/>
	</linearGradient>
	<path class="st23" d="M34.3,20.1L34.3,20.1L34.3,20.1L34.3,20.1z"/>
	
		<radialGradient id="SVGID_24_" cx="34.0905" cy="20.453" r="0.191" gradientTransform="matrix(1 0 0 -1 0 39.929)" gradientUnits="userSpaceOnUse">
		<stop  offset="0" style="stop-color:#F9B314"/>
		<stop  offset="1" style="stop-color:#EC5222"/>
	</radialGradient>
	<path class="st24" d="M34.2,19.7c-0.1-0.1-0.1-0.3-0.2-0.4l0-0.1C34.1,19.4,34.1,19.6,34.2,19.7z"/>
	
		<linearGradient id="SVGID_25_" gradientUnits="userSpaceOnUse" x1="3072.2854" y1="4062.2751" x2="3065.7134" y2="4061.1802" gradientTransform="matrix(5.190019e-02 -0.9987 -0.9987 -5.190019e-02 3931.0903 3295.3877)">
		<stop  offset="0" style="stop-color:#F0584B"/>
		<stop  offset="1" style="stop-color:#C73F3D"/>
	</linearGradient>
	<path class="st25" d="M34.2,19.7c-0.1-0.1-0.1-0.3-0.2-0.4l0-0.1C34.1,19.4,34.1,19.6,34.2,19.7z"/>
	
		<radialGradient id="SVGID_26_" cx="34.368" cy="19.8195" r="3.394311e-02" gradientTransform="matrix(1 0 0 -1 0 39.929)" gradientUnits="userSpaceOnUse">
		<stop  offset="0" style="stop-color:#F9B314"/>
		<stop  offset="1" style="stop-color:#EC5222"/>
	</radialGradient>
	<path class="st26" d="M34.4,20.2L34.4,20.2L34.4,20.2C34.4,20.1,34.4,20.1,34.4,20.2z"/>
	
		<linearGradient id="SVGID_27_" gradientUnits="userSpaceOnUse" x1="3072.2974" y1="4062.0696" x2="3065.7654" y2="4060.9817" gradientTransform="matrix(5.190019e-02 -0.9987 -0.9987 -5.190019e-02 3931.0903 3295.3877)">
		<stop  offset="0" style="stop-color:#F0584B"/>
		<stop  offset="1" style="stop-color:#C73F3D"/>
	</linearGradient>
	<path class="st27" d="M34.4,20.2L34.4,20.2L34.4,20.2C34.4,20.1,34.4,20.1,34.4,20.2z"/>
	
		<linearGradient id="SVGID_28_" gradientUnits="userSpaceOnUse" x1="3055.6125" y1="4062.4558" x2="3076.5327" y2="4062.4558" gradientTransform="matrix(5.190019e-02 -0.9987 -0.9987 -5.190019e-02 3931.0903 3295.3877)">
		<stop  offset="0" style="stop-color:#FCBA39"/>
		<stop  offset="1" style="stop-color:#D96D2D"/>
	</linearGradient>
	<path class="st28" d="M34.4,20.2C34.4,20.1,34.4,20.1,34.4,20.2L34.4,20.2c-0.1-0.2-0.1-0.3-0.2-0.4c-0.1-0.2-0.1-0.3-0.2-0.5
		c0,0,0-0.1-0.1-0.1c-0.1-0.3-0.3-0.6-0.4-0.9c-0.5,1.5-1,3-1.7,4.5c0.8,2.3,0.9,4.1,0.4,4.9l0,0c0,0.1-0.1,0.1-0.1,0.2
		c0,0,0,0-0.1,0.1s-0.1,0.1-0.1,0.1c-0.1,0.1-0.2,0.1-0.2,0.2l0,0C32.9,27.5,35.4,26.3,34.4,20.2z"/>
	
		<radialGradient id="SVGID_29_" cx="3671.3511" cy="3963.3579" r="14.161" gradientTransform="matrix(1 0 0 -1 0 39.929)" gradientUnits="userSpaceOnUse">
		<stop  offset="0" style="stop-color:#F9B314"/>
		<stop  offset="1" style="stop-color:#EC5222"/>
	</radialGradient>
	<path class="st29" d="M34.4,20.2C34.4,20.1,34.4,20.1,34.4,20.2L34.4,20.2c-0.1-0.2-0.1-0.3-0.2-0.4c-0.1-0.2-0.1-0.3-0.2-0.5
		c0,0,0-0.1-0.1-0.1c-0.1-0.3-0.3-0.6-0.4-0.9c-0.5,1.5-1,3-1.7,4.5c0.8,2.3,0.9,4.1,0.4,4.9l0,0c0,0.1-0.1,0.1-0.1,0.2
		c0,0,0,0-0.1,0.1s-0.1,0.1-0.1,0.1c-0.1,0.1-0.2,0.1-0.2,0.2l0,0C32.9,27.5,35.4,26.3,34.4,20.2z"/>
	<path class="st0" d="M34,19.2L34,19.2c0,0,0-0.1-0.1-0.1l0,0c-0.1-0.3-0.3-0.6-0.4-0.9c-0.5,1.5-1,3-1.7,4.5
		c0.8,2.3,0.9,4.1,0.4,4.9l0,0c0,0.1-0.1,0.1-0.1,0.2c0,0,0,0-0.1,0.1s-0.1,0-0.1,0.1l0,0c-0.1,0.1-0.2,0.1-0.2,0.2h0
		c-0.1,0-0.1,0.1-0.2,0.1l-0.1,0c-0.1,0-0.1,0.1-0.2,0.1l-0.1,0c-0.1,0-0.1,0.1-0.2,0.1l-0.1,0c-0.1,0-0.2,0.1-0.2,0.1h0
		c-0.2,0.1-0.3,0.1-0.5,0.2c-0.1,0-0.1,0-0.2,0l-0.2,0L29.5,29l-0.2,0c-0.1,0-0.2,0-0.3,0.1l-0.2,0c-0.1,0-0.3,0-0.4,0.1l-0.1,0
		c-0.8,0.1-1.6,0.2-2.3,0.2l0,0c-0.2,0-0.4,0-0.7,0c0.4-0.5,0.8-1,1.2-1.5c3.8-5.3,6.2-11.5,6.8-18c0.5,0.2,1,0.3,1.5,0.5
		c0-1.9-0.3-3.5-1.1-4.3c-1.2-1.3-4-1.8-7.5-1.5l-0.1,0c-0.2,0-0.4,0-0.6,0.1l-0.2,0c-0.2,0-0.4,0-0.6,0.1l-0.1,0
		c-0.3,0-0.5,0.1-0.8,0.1l-0.2,0c-0.2,0-0.4,0.1-0.5,0.1l-0.3,0.1l-0.5,0.1l-0.2,0l0,0c-2,0.4-4,1-6,1.7C15.9,6.9,15.7,7,15.4,7
		C9.1,9.1,3.5,12.5,1.2,15.5l0,0c-0.4,0.5-0.8,1.1-1,1.7l0,0c0,0.1-0.1,0.3-0.1,0.4v0C0,17.8,0,18,0,18.2c-0.1,1.8,1.6,4.1,4.3,6.5
		c-0.1-0.4-0.1-0.7-0.1-1.1c2.7,2,5.6,3.6,8.7,4.9c1.2,0.5,2.3,0.9,3.5,1.2v0c0.2,0,0.3,0.1,0.5,0.1c0.1,0,0.1,0,0.2,0
		c-0.2-0.1-0.4-0.1-0.6-0.2c0.2,0.7,0.5,1.5,0.9,2.1c0.6,0.2,1.3,0.3,1.9,0.4c-2,1.3-3.7,2-4.6,1.7l0,0c-0.8-0.3-1.7-1.4-2.4-3.3
		c-1.2-0.3-2.3-0.7-3.4-1.1l-0.5-0.2c1.2,4.5,3.1,7.8,5.1,8.4c1.9,0.6,5.4-1.6,9-5.1c6.4,0.6,12-0.7,13.3-2.8c0.2-0.3,0.3-0.7,0.4-1
		c-0.1,0.1-0.2,0.1-0.3,0.2c0.1-0.1,0.2-0.1,0.3-0.2l0,0l0,0C36.6,26.7,35.8,23.1,34,19.2z M34.9,29.5c0.1-0.1,0.2-0.1,0.3-0.2
		c-0.3,0.1-0.6,0.3-0.9,0.4c0.1,0,0.2-0.1,0.3-0.1C34.8,29.6,34.8,29.5,34.9,29.5z M33.6,30l0.2-0.1c0.1,0,0.2-0.1,0.4-0.1
		c-0.3,0.1-0.7,0.2-1.1,0.3C33.3,30.1,33.5,30,33.6,30L33.6,30z M32.9,30.2L32.9,30.2c-0.1,0-0.3,0.1-0.5,0.1l0,0
		C32.6,30.3,32.7,30.2,32.9,30.2L32.9,30.2z M32.2,30.3c-0.5,0.1-1,0.2-1.5,0.3l0.1,0C31.3,30.5,31.8,30.4,32.2,30.3L32.2,30.3z
		 M29.9,30.7c0.3,0,0.5-0.1,0.8-0.1C30.4,30.6,30.1,30.7,29.9,30.7L29.9,30.7z M29.9,30.7c-0.6,0.1-1.2,0.1-1.8,0.1
		C28.7,30.8,29.3,30.8,29.9,30.7L29.9,30.7z M8.7,23.9c-1.5-1-2.7-2.3-3.8-3.7c-0.1-0.1-0.1-0.2-0.2-0.2c0,0,0,0,0-0.1
		c-0.1-0.2-0.2-0.4-0.3-0.6c0,0,0-0.1-0.1-0.1s0-0.1,0-0.1s0-0.1,0-0.1s0-0.1,0-0.1c0-0.1,0-0.1,0-0.2c0,0,0-0.1,0-0.1
		c0-0.1,0-0.1,0-0.2v0c0-0.1,0-0.1,0-0.2c0,0,0,0,0-0.1c0,0,0-0.1,0-0.1c0,0,0,0,0-0.1c0-0.1,0.1-0.1,0.1-0.2c0,0,0,0,0-0.1
		c0-0.1,0.1-0.1,0.1-0.2c0,0,0-0.1,0.1-0.1s0.1-0.1,0.1-0.1s0-0.1,0.1-0.1s0.1-0.1,0.1-0.2s0.1-0.1,0.2-0.2L5,16.6
		c0-0.1,0.1-0.1,0.1-0.2l0.1-0.1c0.2-0.2,0.4-0.4,0.6-0.6l0,0c0.1-0.1,0.2-0.1,0.2-0.2l0,0c0.2-0.2,0.4-0.3,0.5-0.5l0,0
		c0.6-0.5,1.2-0.9,1.8-1.3c5.2-2.5,10.6-4.5,16.3-5.7C25.1,8,25.5,8,25.9,8l0,0c0.8-0.1,1.6,0,2.4,0h0c0.1,0,0.2,0,0.3,0h0
		c0.3,0,0.6,0.1,0.9,0.2h0c0.1,0,0.1,0,0.2,0.1c0,0,0.1,0,0.1,0L30,8.4c0,0,0.1,0,0.1,0.1s0.1,0,0.1,0.1s0.1,0,0.1,0.1
		s0.1,0,0.1,0.1s0.1,0.1,0.1,0.1c0,0,0,0,0.1,0c0.1,0,0.1,0.1,0.1,0.1l0,0C30.8,9,30.9,9,30.9,9.1l0,0c0,0.1,0.1,0.2,0.1,0.3
		c0.5,1.2,0.4,3.8-0.4,6.8c-3,8-4.8,10-7.8,12.9C14.9,28.1,13.3,26.6,8.7,23.9z M21.4,30.6c-1-0.1-2.1-0.3-3.1-0.5
		c0.3,0.1,0.6,0.1,0.9,0.2l0.1,0C20,30.4,20.7,30.5,21.4,30.6L21.4,30.6L21.4,30.6z M17.2,29.8c0.3,0.1,0.6,0.2,1,0.2l0.1,0
		C17.9,30,17.5,29.9,17.2,29.8L17.2,29.8z M24.1,30.8L24.1,30.8c0.7,0,1.4,0.1,2,0.1h0c0.7,0,1.3,0,1.9,0
		C26.7,30.9,25.4,30.9,24.1,30.8L24.1,30.8z M35.3,29.3L35.3,29.3c0.2-0.1,0.2-0.1,0.3-0.2l0,0C35.5,29.2,35.4,29.2,35.3,29.3
		L35.3,29.3z"/>
	<path class="st0" d="M33.5,18.2c-0.5,1.5-1,3-1.7,4.5c0.8,2.3,0.9,4.1,0.4,4.9l0,0c-0.7,1-3.4,1.7-7,1.8
		c-7.7-0.8-10.3-1.9-13.5-3.7c-0.7-0.4-1.5-0.9-2.3-1.4l-0.7-0.4c-1.2-0.9-2.4-1.9-3.4-3l0,0c-0.7-0.7-1.1-1.6-1.3-2.5v0
		c0-0.8,1-2,2.5-3.2c0-1.4,0.1-2.8,0.3-4.2c-4,2.4-6.7,5.1-6.8,7.2c-0.2,2.6,3.6,6.6,8.9,9.8l0,0c0.3,0.2,0.5,0.3,0.8,0.5l0.1,0.1
		c0.3,0.2,0.6,0.3,0.9,0.5l0,0c0.3,0.1,0.5,0.3,0.8,0.4l0.2,0.1c0.3,0.1,0.6,0.3,0.9,0.4l0.1,0.1l0,0c9.3,4.4,21.1,2.7,22.9-0.2
		C37,27.8,36,23.2,33.5,18.2z"/>
	<path class="st0" d="M14.6,33.9L14.6,33.9c-1.2-0.4-2.6-2.9-3.5-6.4c-1.6-9.9-0.6-11.8,1-17.5c1.3-3.4,2.9-5.7,4.1-5.9l0,0
		c0.8-0.2,2.2,0.4,3.7,1.6c1.4-0.3,2.7-0.6,4.1-0.8c-3.3-3.3-6.6-5.2-8.7-4.8c-3.1,0.6-6.6,7.4-8.1,15.3
		c-1.8,10.2,2.7,21.3,6.1,22.4c2.3,0.7,6.5-1.4,10.6-5.1c-1.6-0.1-3.2-0.2-4.7-0.5C17.2,33.5,15.5,34.2,14.6,33.9z"/>
	<path class="st0" d="M15.4,0.1c-2.7,0.7-5.5,7.4-6.6,15.3c-1.2,9.8,2.8,20.6,5.6,22.6c2.4,0,6-2.1,9.5-5.2
		c-1.6-0.1-3.2-0.2-4.7-0.5c-2,1.3-3.7,2-4.6,1.7l0,0c-1.2-0.4-2.6-2.9-3.5-6.4c-1.6-9.9-0.6-11.8,1-17.5c1.3-3.4,2.9-5.7,4.1-5.9
		l0,0c0.8-0.2,2.2,0.4,3.7,1.6c1.2-0.3,2.4-0.6,3.5-0.7L24,4.8C20.7,1.6,17.5-0.4,15.4,0.1z"/>
	<path class="st0" d="M22.3,34.1c0.5-0.4,1.1-0.9,1.6-1.4c-1.6-0.1-3.2-0.2-4.7-0.5c-2,1.3-3.7,2-4.6,1.7l0,0
		c-0.2-0.1-0.4-0.2-0.6-0.4C15,34.5,16.8,36.6,22.3,34.1z"/>
	<path class="st0" d="M24,4.8L24,4.8c-1.7-1.4-3.9-1.9-6.1-1.3c-0.7,0.1-1.3,0.4-1.9,0.7c0,0,0.1,0,0.1,0l0,0
		c0.8-0.2,2.2,0.4,3.7,1.6c1.2-0.3,2.4-0.6,3.5-0.7L24,4.8z"/>
	<path class="st30" d="M62.4,32.2H47.8V5.9h4.4v22.6h10.2V32.2z"/>
	<path class="st30" d="M81.6,23.9H68.8c0,1.5,0.5,3,1.6,4c1.2,1,2.7,1.5,4.2,1.4c2,0,3.9-0.6,5.5-1.8V31c-2.1,1.2-4.4,1.7-6.8,1.6
		c-2.4,0.1-4.8-0.8-6.5-2.6c-1.6-1.7-2.4-4.1-2.4-7.2c-0.1-2.6,0.8-5.2,2.6-7.1c1.7-1.8,4-2.8,6.4-2.8c2.3-0.1,4.5,0.8,6,2.5
		c1.5,2,2.3,4.4,2.1,6.9L81.6,23.9L81.6,23.9z M77.5,20.9c0.1-1.3-0.3-2.5-1.1-3.6c-0.7-0.9-1.8-1.3-2.9-1.3c-1.2,0-2.3,0.5-3.1,1.3
		c-0.9,1-1.4,2.2-1.6,3.5L77.5,20.9L77.5,20.9z"/>
	<path class="st30" d="M102.4,32.2h-4.3V21.6c0-3.5-1.2-5.3-3.7-5.3c-1.2,0-2.4,0.5-3.2,1.5c-0.9,1-1.3,2.3-1.3,3.7v10.7h-4.3V13.4
		H90v3.1H90c1.2-2.2,3.5-3.6,6.1-3.6c1.8-0.1,3.5,0.6,4.7,2c1.2,1.7,1.8,3.7,1.6,5.8V32.2z"/>
	<path class="st30" d="M115.9,32.6c-2.6,0.1-5.1-0.8-6.9-2.6c-1.8-1.9-2.7-4.4-2.6-7c-0.2-2.7,0.8-5.4,2.7-7.4
		c2-1.8,4.6-2.8,7.3-2.7c2.6-0.1,5,0.8,6.9,2.6c1.7,2,2.6,4.6,2.5,7.2c0.1,2.7-0.8,5.3-2.7,7.2C121.2,31.7,118.6,32.7,115.9,32.6z
		 M116.1,16.3c-1.5-0.1-3,0.6-3.9,1.7c-1,1.4-1.5,3.1-1.4,4.8c-0.1,1.7,0.4,3.3,1.5,4.7c1,1.1,2.4,1.8,3.9,1.7
		c1.5,0.1,2.9-0.5,3.9-1.7c1-1.4,1.5-3.1,1.3-4.8c0.1-1.7-0.4-3.4-1.3-4.8C119,16.9,117.6,16.2,116.1,16.3L116.1,16.3z"/>
</g>
<g id="Layer_3" class="st31">
	
		<image style="display:inline;overflow:visible;" width="2830" height="1913" xlink:href="../../../Time Off/ak_timeoff_1-01.png"  transform="matrix(3.219850e-02 0 0 3.168550e-02 14.7988 -11.3417)">
	</image>
</g>
</svg>
